<svg xmlns="http://www.w3.org/2000/svg" viewBox="-3.87 -4.4 38 38" role="img" aria-label="Sage">
  <rect x="-3.87" y="-4.4" width="38" height="38" rx="8" fill="#124434"/>
<path d="M15.12 17.2C16.2 17.2 17.12 16.55 17.51 15.61C17.64 15.3 17.72 14.96 17.72 14.6C17.72 13.17 16.56 12.01 15.13 12.01C14.05 12.01 13.13 12.66 12.74 13.6C12.61 13.91 12.53 14.25 12.53 14.62C12.53 16.05 13.69 17.21 15.12 17.21V17.2Z" fill="#ffffff"/>
<path d="M4.19 11.4399C4.19 11.4399 4.1 11.4399 4.05 11.4399C2.3 11.4399 0.880005 12.8599 0.880005 14.6099C0.880005 16.3599 2.3 17.7799 4.05 17.7799C4.1 17.7799 4.19 17.7799 4.19 17.7799L5.48 17.7599C7.19 17.7099 8.57 16.3299 8.57 14.6099C8.57 12.8899 7.19 11.4999 5.48 11.4599H4.19V11.4399Z" fill="#ffffff"/>
<path d="M25 11.4399C25 11.4399 24.91 11.4399 24.86 11.4399C23.11 11.4399 21.69 12.8599 21.69 14.6099C21.69 16.3599 23.11 17.7799 24.86 17.7799C24.91 17.7799 25 17.7799 25 17.7799L26.29 17.7599C28 17.7099 29.38 16.3299 29.38 14.6099C29.38 12.8899 28 11.4999 26.29 11.4599H25V11.4399Z" fill="#ffffff"/>
<path d="M26.21 22.1501C25.43 22.1501 24.77 22.5401 24.3 23.0901V23.0601L23.45 23.9101C23.09 24.3601 22.84 24.9001 22.84 25.5201C22.84 26.9501 24 28.1101 25.43 28.1101C26.16 28.1101 26.82 27.8001 27.29 27.3101L28.1 26.4901C28.53 26.0301 28.8 25.4201 28.8 24.7401C28.8 23.3101 27.64 22.1501 26.21 22.1501Z" fill="#ffffff"/>
<path d="M4.04001 7.11015C4.82001 7.11015 5.48001 6.72015 5.95001 6.17015V6.20015L6.80001 5.35015C7.16001 4.90015 7.41001 4.36015 7.41001 3.74015C7.41001 2.31015 6.25001 1.15015 4.82001 1.15015C4.09001 1.15015 3.43001 1.46015 2.96001 1.95015L2.15001 2.77015C1.72001 3.23015 1.45001 3.84015 1.45001 4.52015C1.45001 5.95015 2.61001 7.11015 4.04001 7.11015Z" fill="#ffffff"/>
<path d="M26.21 7.11015C25.43 7.11015 24.77 6.72015 24.3 6.17015V6.20015L23.45 5.35015C23.09 4.90015 22.84 4.36015 22.84 3.74015C22.84 2.31015 24 1.15015 25.43 1.15015C26.16 1.15015 26.82 1.46015 27.29 1.95015L28.1 2.77015C28.53 3.23015 28.8 3.84015 28.8 4.52015C28.8 5.95015 27.64 7.11015 26.21 7.11015Z" fill="#ffffff"/>
<path d="M18.29 3.59003C18.29 3.59003 18.29 3.50003 18.29 3.45003C18.29 1.70003 16.87 0.280029 15.12 0.280029C13.37 0.280029 11.95 1.70003 11.95 3.45003C11.95 3.50003 11.95 3.59003 11.95 3.59003L11.97 4.88003C12.02 6.59003 13.4 7.97003 15.12 7.97003C16.84 7.97003 18.23 6.59003 18.27 4.88003V3.59003H18.29Z" fill="#ffffff"/>
<path d="M4.04001 22.1501C4.82001 22.1501 5.48001 22.5401 5.95001 23.0901V23.0601L6.80001 23.9101C7.16001 24.3601 7.41001 24.9001 7.41001 25.5201C7.41001 26.9501 6.25001 28.1101 4.82001 28.1101C4.09001 28.1101 3.43001 27.8001 2.96001 27.3101L2.15001 26.4901C1.72001 26.0301 1.45001 25.4201 1.45001 24.7401C1.45001 23.3101 2.61001 22.1501 4.04001 22.1501Z" fill="#ffffff"/>
<path d="M18.29 24.59C18.29 24.59 18.29 24.5 18.29 24.45C18.29 22.7 16.87 21.28 15.12 21.28C13.37 21.28 11.95 22.7 11.95 24.45C11.95 24.5 11.95 24.59 11.95 24.59L11.97 25.88C12.02 27.59 13.4 28.97 15.12 28.97C16.84 28.97 18.23 27.59 18.27 25.88V24.59H18.29Z" fill="#ffffff"/>
</svg>
